<svg xmlns="http://www.w3.org/2000/svg" xmlns:v="https://svgstorm.com"
viewBox = "0 0 259 259"
width="259"
height="259">
<g fill="None" fill-opacity="0.0" stroke="#000000" stroke-opacity="0.00" stroke-width="0.3"><path d="
M 0.00 259.00 
L 259.00 259.00
L 259.00 0.00
L 0.00 0.00
L 0.00 259.00
M 202.00 102.00 
C 211.97 107.56 194.12 114.44 186.92 116.92 C 179.72 119.40 168.21 125.90 159.78 128.78 C 151.34 131.66 140.40 135.53 132.32 140.32 C 124.25 145.12 114.10 149.21 105.00 152.00
C 105.00 159.33 105.00 166.67 105.00 174.00
C 106.19 174.77 106.92 176.04 108.00 177.00
C 117.08 185.04 117.36 203.91 104.00 201.00 C 90.64 198.09 72.16 208.15 67.00 195.00
C 65.08 190.10 67.69 181.95 69.00 175.00
C 72.25 175.27 74.72 172.73 78.00 173.00
C 78.00 134.33 78.00 95.67 78.00 57.00
C 119.89 70.99 161.45 85.62 202.00 102.00 Z"/>
</g>
<g fill="None" fill-opacity="0.0" stroke="#EB3406" stroke-opacity="0.98" stroke-width="0.3"><path d="
M 67.00 195.00 
C 67.33 195.24 68.50 195.00 69.00 195.00
C 83.00 195.00 97.00 195.00 111.00 195.00
C 112.17 188.53 109.42 184.58 108.00 179.00
C 107.91 178.52 108.00 178.00 108.00 178.00
C 105.84 177.11 104.90 176.17 104.00 174.00
C 103.50 174.00 103.00 174.00 103.00 174.00
C 102.50 174.00 101.50 173.98 101.00 174.00
C 100.00 174.05 99.00 173.96 98.00 174.00
C 99.28 165.81 95.41 153.77 100.00 148.00
C 107.22 139.12 123.55 139.88 133.07 133.07 C 142.60 126.27 155.82 124.07 165.89 117.89 C 175.96 111.72 190.08 110.14 200.00 104.00
C 201.06 103.34 199.66 102.23 202.00 102.00
C 161.45 85.62 119.89 70.99 78.00 57.00
C 78.00 95.67 78.00 134.33 78.00 173.00
C 74.72 172.73 72.25 175.27 69.00 175.00
C 67.69 181.95 65.08 190.10 67.00 195.00 Z"/>
</g>
<g fill="None" fill-opacity="0.0" stroke="#000000" stroke-opacity="0.13" stroke-width="0.3"><path d="
M 200.00 104.00 
C 199.74 109.37 189.99 113.01 181.93 115.93 C 173.86 118.84 166.42 122.76 158.32 126.32 C 150.22 129.88 144.25 134.13 135.31 137.31 C 126.36 140.48 122.16 144.98 111.77 147.77 C 101.38 150.56 102.04 163.47 103.00 174.00
C 103.00 174.00 103.50 174.00 104.00 174.00
C 104.50 174.00 105.00 174.00 105.00 174.00
C 105.00 166.67 105.00 159.33 105.00 152.00
C 114.10 149.21 124.25 145.12 132.32 140.32 C 140.40 135.53 151.34 131.66 159.78 128.78 C 168.21 125.90 179.72 119.40 186.92 116.92 C 194.12 114.44 211.97 107.56 202.00 102.00
C 199.66 102.23 201.06 103.34 200.00 104.00 Z"/>
</g>
<g fill="None" fill-opacity="0.0" stroke="#000000" stroke-opacity="0.32" stroke-width="0.3"><path d="
M 100.00 148.00 
C 98.89 150.93 99.94 157.95 100.00 161.00 C 100.06 164.05 98.47 172.04 101.00 174.00
C 101.50 173.98 102.50 174.00 103.00 174.00
C 102.04 163.47 101.38 150.56 111.77 147.77 C 122.16 144.98 126.36 140.48 135.31 137.31 C 144.25 134.13 150.22 129.88 158.32 126.32 C 166.42 122.76 173.86 118.84 181.93 115.93 C 189.99 113.01 199.74 109.37 200.00 104.00
C 190.08 110.14 175.96 111.72 165.89 117.89 C 155.82 124.07 142.60 126.27 133.07 133.07 C 123.55 139.88 107.22 139.12 100.00 148.00 Z"/>
</g>
<g fill="None" fill-opacity="0.0" stroke="#AD2504" stroke-opacity="0.66" stroke-width="0.3"><path d="
M 101.00 174.00 
C 98.47 172.04 100.06 164.05 100.00 161.00 C 99.94 157.95 98.89 150.93 100.00 148.00
C 95.41 153.77 99.28 165.81 98.00 174.00
C 99.00 173.96 100.00 174.05 101.00 174.00 Z"/>
</g>
<g fill="None" fill-opacity="0.0" stroke="#A52202" stroke-opacity="0.23" stroke-width="0.3"><path d="
M 108.00 178.00 
C 108.00 177.50 108.00 177.00 108.00 177.00
C 106.92 176.04 106.19 174.77 105.00 174.00
C 105.00 174.00 104.50 174.00 104.00 174.00
C 104.90 176.17 105.84 177.11 108.00 178.00 Z"/>
</g>
<g fill="None" fill-opacity="0.0" stroke="#000000" stroke-opacity="0.12" stroke-width="0.3"><path d="
M 108.00 178.00 
C 108.00 178.00 107.91 178.52 108.00 179.00
C 111.11 180.27 118.25 194.03 114.00 198.00 C 109.75 201.97 96.89 199.87 90.00 200.00 C 83.11 200.13 70.86 202.87 69.00 195.00
C 68.50 195.00 67.33 195.24 67.00 195.00
C 72.16 208.15 90.64 198.09 104.00 201.00 C 117.36 203.91 117.08 185.04 108.00 177.00
C 108.00 177.00 108.00 177.50 108.00 178.00 Z"/>
</g>
<g fill="None" fill-opacity="0.0" stroke="#000000" stroke-opacity="0.29" stroke-width="0.3"><path d="
M 69.00 195.00 
C 70.86 202.87 83.11 200.13 90.00 200.00 C 96.89 199.87 109.75 201.97 114.00 198.00 C 118.25 194.03 111.11 180.27 108.00 179.00
C 109.42 184.58 112.17 188.53 111.00 195.00
C 97.00 195.00 83.00 195.00 69.00 195.00 Z"/>
</g>
<g fill="#000000" fill-opacity="0.00" stroke="None">
<path d="
M 0.00 259.00 
L 259.00 259.00
L 259.00 0.00
L 0.00 0.00
L 0.00 259.00
M 202.00 102.00 
C 211.97 107.56 194.12 114.44 186.92 116.92 C 179.72 119.40 168.21 125.90 159.78 128.78 C 151.34 131.66 140.40 135.53 132.32 140.32 C 124.25 145.12 114.10 149.21 105.00 152.00
C 105.00 159.33 105.00 166.67 105.00 174.00
C 106.19 174.77 106.92 176.04 108.00 177.00
C 117.08 185.04 117.36 203.91 104.00 201.00 C 90.64 198.09 72.16 208.15 67.00 195.00
C 65.08 190.10 67.69 181.95 69.00 175.00
C 72.25 175.27 74.72 172.73 78.00 173.00
C 78.00 134.33 78.00 95.67 78.00 57.00
C 119.89 70.99 161.45 85.62 202.00 102.00 Z"/>
</g>
<g fill="#EB3406" fill-opacity="0.98" stroke="None">
<path d="
M 67.00 195.00 
C 67.33 195.24 68.50 195.00 69.00 195.00
C 83.00 195.00 97.00 195.00 111.00 195.00
C 112.17 188.53 109.42 184.58 108.00 179.00
C 107.91 178.52 108.00 178.00 108.00 178.00
C 105.84 177.11 104.90 176.17 104.00 174.00
C 103.50 174.00 103.00 174.00 103.00 174.00
C 102.50 174.00 101.50 173.98 101.00 174.00
C 100.00 174.05 99.00 173.96 98.00 174.00
C 99.28 165.81 95.41 153.77 100.00 148.00
C 107.22 139.12 123.55 139.88 133.07 133.07 C 142.60 126.27 155.82 124.07 165.89 117.89 C 175.96 111.72 190.08 110.14 200.00 104.00
C 201.06 103.34 199.66 102.23 202.00 102.00
C 161.45 85.62 119.89 70.99 78.00 57.00
C 78.00 95.67 78.00 134.33 78.00 173.00
C 74.72 172.73 72.25 175.27 69.00 175.00
C 67.69 181.95 65.08 190.10 67.00 195.00 Z"/>
</g>
<g fill="#000000" fill-opacity="0.13" stroke="None">
<path d="
M 200.00 104.00 
C 199.74 109.37 189.99 113.01 181.93 115.93 C 173.86 118.84 166.42 122.76 158.32 126.32 C 150.22 129.88 144.25 134.13 135.31 137.31 C 126.36 140.48 122.16 144.98 111.77 147.77 C 101.38 150.56 102.04 163.47 103.00 174.00
C 103.00 174.00 103.50 174.00 104.00 174.00
C 104.50 174.00 105.00 174.00 105.00 174.00
C 105.00 166.67 105.00 159.33 105.00 152.00
C 114.10 149.21 124.25 145.12 132.32 140.32 C 140.40 135.53 151.34 131.66 159.78 128.78 C 168.21 125.90 179.72 119.40 186.92 116.92 C 194.12 114.44 211.97 107.56 202.00 102.00
C 199.66 102.23 201.06 103.34 200.00 104.00 Z"/>
</g>
<g fill="#000000" fill-opacity="0.32" stroke="None">
<path d="
M 100.00 148.00 
C 98.89 150.93 99.94 157.95 100.00 161.00 C 100.06 164.05 98.47 172.04 101.00 174.00
C 101.50 173.98 102.50 174.00 103.00 174.00
C 102.04 163.47 101.38 150.56 111.77 147.77 C 122.16 144.98 126.36 140.48 135.31 137.31 C 144.25 134.13 150.22 129.88 158.32 126.32 C 166.42 122.76 173.86 118.84 181.93 115.93 C 189.99 113.01 199.74 109.37 200.00 104.00
C 190.08 110.14 175.96 111.72 165.89 117.89 C 155.82 124.07 142.60 126.27 133.07 133.07 C 123.55 139.88 107.22 139.12 100.00 148.00 Z"/>
</g>
<g fill="#AD2504" fill-opacity="0.66" stroke="None">
<path d="
M 101.00 174.00 
C 98.47 172.04 100.06 164.05 100.00 161.00 C 99.94 157.95 98.89 150.93 100.00 148.00
C 95.41 153.77 99.28 165.81 98.00 174.00
C 99.00 173.96 100.00 174.05 101.00 174.00 Z"/>
</g>
<g fill="#A52202" fill-opacity="0.23" stroke="None">
<path d="
M 108.00 178.00 
C 108.00 177.50 108.00 177.00 108.00 177.00
C 106.92 176.04 106.19 174.77 105.00 174.00
C 105.00 174.00 104.50 174.00 104.00 174.00
C 104.90 176.17 105.84 177.11 108.00 178.00 Z"/>
</g>
<g fill="#000000" fill-opacity="0.12" stroke="None">
<path d="
M 108.00 178.00 
C 108.00 178.00 107.91 178.52 108.00 179.00
C 111.11 180.27 118.25 194.03 114.00 198.00 C 109.75 201.97 96.89 199.87 90.00 200.00 C 83.11 200.13 70.86 202.87 69.00 195.00
C 68.50 195.00 67.33 195.24 67.00 195.00
C 72.16 208.15 90.64 198.09 104.00 201.00 C 117.36 203.91 117.08 185.04 108.00 177.00
C 108.00 177.00 108.00 177.50 108.00 178.00 Z"/>
</g>
<g fill="#000000" fill-opacity="0.29" stroke="None">
<path d="
M 69.00 195.00 
C 70.86 202.87 83.11 200.13 90.00 200.00 C 96.89 199.87 109.75 201.97 114.00 198.00 C 118.25 194.03 111.11 180.27 108.00 179.00
C 109.42 184.58 112.17 188.53 111.00 195.00
C 97.00 195.00 83.00 195.00 69.00 195.00 Z"/>
</g>
</svg>