<?xml version="1.0" encoding="UTF-8"?>
<!DOCTYPE svg PUBLIC "-//W3C//DTD SVG 1.1//EN" "http://www.w3.org/Graphics/SVG/1.1/DTD/svg11.dtd">
<svg xmlns="http://www.w3.org/2000/svg" version="1.1" width="2350px" height="3083px" style="shape-rendering:geometricPrecision; text-rendering:geometricPrecision; image-rendering:optimizeQuality; fill-rule:evenodd; clip-rule:evenodd" xmlns:xlink="http://www.w3.org/1999/xlink">
<g><path style="opacity:1" fill="#020202" d="M 1118.5,618.5 C 1131.08,618.178 1143.58,618.511 1156,619.5C 1170.66,670.987 1185.83,722.321 1201.5,773.5C 1287.53,777.405 1370.03,796.405 1449,830.5C 1488.52,789.144 1530.35,750.477 1574.5,714.5C 1610.2,738.015 1645.2,762.515 1679.5,788C 1683.66,790.821 1685.16,794.655 1684,799.5C 1665.86,838.442 1647.2,877.108 1628,915.5C 1624.78,924.585 1623.78,933.918 1625,943.5C 1689.19,1000.88 1739.52,1068.54 1776,1146.5C 1776.56,1147.02 1777.23,1147.36 1778,1147.5C 1834.44,1137.36 1891.11,1135.03 1948,1140.5C 1964.17,1181.82 1974,1224.49 1977.5,1268.5C 1900.48,1311.9 1819.82,1347.07 1735.5,1374C 1718.34,1378.97 1701,1383.31 1683.5,1387C 1669.19,1391.55 1655.19,1396.88 1641.5,1403C 1631.69,1405.29 1621.86,1407.46 1612,1409.5C 1611.23,1409.36 1610.56,1409.02 1610,1408.5C 1590.61,1221.17 1493.11,1094.33 1317.5,1028C 1255.46,1008.23 1192.13,1001.9 1127.5,1009C 1083.63,1014.85 1041.8,1027.35 1002,1046.5C 1000.78,1046.14 999.609,1045.64 998.5,1045C 938.636,993.144 879.97,939.81 822.5,885C 876.087,844.962 935.587,817.129 1001,801.5C 1005.23,744.58 1008.39,687.58 1010.5,630.5C 1027.17,630.667 1043.84,630.5 1060.5,630C 1071.38,628.152 1082.04,625.486 1092.5,622C 1101.31,620.816 1109.98,619.65 1118.5,618.5 Z"/></g>
<g><path style="opacity:1" fill="#020202" d="M 630.5,832.5 C 640.59,835.589 650.257,839.756 659.5,845C 703.084,875.906 747.751,905.239 793.5,933C 844.074,981.411 895.074,1029.24 946.5,1076.5C 767.671,1213.21 715.171,1388.54 789,1602.5C 817.006,1668.17 859.006,1723.17 915,1767.5C 906.662,1850.54 895.328,1933.2 881,2015.5C 880.692,2016.31 880.192,2016.97 879.5,2017.5C 857.083,2007.79 835.749,1996.29 815.5,1983C 783.396,1958.86 751.563,1934.36 720,1909.5C 672.018,1933.99 624.351,1958.99 577,1984.5C 546.882,1948.55 517.716,1911.89 489.5,1874.5C 526.833,1831.17 564.167,1787.83 601.5,1744.5C 586.116,1710.4 571.283,1676.07 557,1641.5C 556.762,1629.21 553.429,1617.88 547,1607.5C 537.813,1571.9 530.813,1535.9 526,1499.5C 472.476,1486.86 418.81,1474.86 365,1463.5C 365.943,1420.15 367.609,1376.82 370,1333.5C 369.948,1329.34 370.781,1325.51 372.5,1322C 426.537,1312.3 480.871,1304.8 535.5,1299.5C 553.621,1215.78 586.621,1138.61 634.5,1068C 601.873,1022.87 570.206,977.032 539.5,930.5C 567.707,895.956 598.04,863.289 630.5,832.5 Z"/></g>
<g><path style="opacity:0.2" fill="#2b2b2b" d="M 1202.5,1097.5 C 1167.86,1097.73 1133.53,1101.06 1099.5,1107.5C 1098.83,1107.5 1098.17,1107.5 1097.5,1107.5C 1131.63,1094.72 1166.63,1091.39 1202.5,1097.5 Z"/></g>
<g><path style="opacity:1" fill="#010101" d="M 1202.5,1097.5 C 1341.45,1109.7 1440.28,1178.7 1499,1304.5C 1548.84,1453.97 1517.34,1583.13 1404.5,1692C 1387.17,1704 1369.83,1716 1352.5,1728C 1329.18,1738.83 1305.51,1748.83 1281.5,1758C 1265.2,1759.83 1249.2,1763.16 1233.5,1768C 1066.49,1783.77 946.658,1716.6 874,1566.5C 815.598,1408.27 849.765,1274.1 976.5,1164C 1010.89,1137.81 1049.23,1119.64 1091.5,1109.5C 1094.43,1109.43 1097.09,1108.77 1099.5,1107.5C 1133.53,1101.06 1167.86,1097.73 1202.5,1097.5 Z"/></g>
<g><path style="opacity:0.996" fill="#191919" d="M 1097.5,1107.5 C 1098.17,1107.5 1098.83,1107.5 1099.5,1107.5C 1097.09,1108.77 1094.43,1109.43 1091.5,1109.5C 1093.21,1108.26 1095.21,1107.59 1097.5,1107.5 Z"/></g>
<g><path style="opacity:1" fill="#030303" d="M 1829.5,1401.5 C 1833.83,1401.5 1838.17,1401.5 1842.5,1401.5C 1844.14,1462.28 1838.81,1522.44 1826.5,1582C 1827.77,1587.23 1829.27,1592.4 1831,1597.5C 1870.41,1625.46 1909.91,1653.29 1949.5,1681C 1958.48,1686.21 1960.98,1693.71 1957,1703.5C 1939.7,1741.55 1921.53,1779.22 1902.5,1816.5C 1901.83,1816.83 1901.17,1817.17 1900.5,1817.5C 1851.94,1804.76 1803.27,1792.42 1754.5,1780.5C 1750.73,1781.55 1747.06,1782.89 1743.5,1784.5C 1697.9,1856.6 1640.4,1917.6 1571,1967.5C 1585.33,2011.16 1601.67,2054.16 1620,2096.5C 1622.61,2103.7 1621.77,2110.37 1617.5,2116.5C 1580.92,2140.05 1543.75,2162.71 1506,2184.5C 1494.64,2173.47 1483.64,2162.14 1473,2150.5C 1455.83,2131.33 1438.67,2112.17 1421.5,2093C 1409.9,2082.2 1397.56,2072.37 1384.5,2063.5C 1300.3,2085.73 1214.63,2096.9 1127.5,2097C 1105.95,2143.94 1084.78,2191.11 1064,2238.5C 1061.12,2240.53 1057.95,2241.86 1054.5,2242.5C 1011.81,2233.53 969.305,2223.87 927,2213.5C 927.895,2166.51 929.228,2119.51 931,2072.5C 933.642,2062.29 935.642,2051.96 937,2041.5C 942.933,1963.57 956.099,1886.9 976.5,1811.5C 976.833,1811.17 977.167,1810.83 977.5,1810.5C 1077.1,1861.49 1181.44,1874.33 1290.5,1849C 1475.55,1790.6 1583.39,1665.43 1614,1473.5C 1614.5,1473 1615,1472.5 1615.5,1472C 1686.51,1447.16 1757.84,1423.66 1829.5,1401.5 Z"/></g>
</svg>
